<?xml version="1.0" standalone="no"?>
<!DOCTYPE svg PUBLIC "-//W3C//DTD SVG 1.1//EN"
"http://www.w3.org/Graphics/SVG/1.1/DTD/svg11.dtd">

<svg width="392" height="144" view_box="0 0 392 144"
xmlns="http://www.w3.org/2000/svg"
xmlns:link="http://www.w3.org/1999/xlink">\n\n<desc>Généré par Mocodo 2.3.7 le Mon, 28 Feb 2022 00:54:37</desc>

<rect id="frame" x="0" y="0" width="392" height="144" fill="#f5f5f5" stroke="none" stroke-width="0"/>

<!-- Association CATEGORISE -->
<line x1="335" y1="72" x2="197" y2="72" stroke="#bf812d" stroke-width="1.5"/>
<text x="263" y="89.0" fill="#01665e" font-family="Arial" font-size="12">1,1</text>
<line x1="58" y1="72" x2="197" y2="72" stroke="#bf812d" stroke-width="1.5"/>
<text x="113" y="89.0" fill="#01665e" font-family="Arial" font-size="12">0,N</text>
<g id="association-CATEGORISE">
	<path d="M 240 44 a 14 14 90 0 1 14 14 V 71 h -114 V 58 a 14 14 90 0 1 14 -14" fill="#dfc27d" stroke="#dfc27d" stroke-width="0"/>
	<path d="M 254 71.0 v 15 a 14 14 90 0 1 -14 14 H 154 a 14 14 90 0 1 -14 -14 V 71.0 H 114" fill="#f6e8c3" stroke="#f6e8c3" stroke-width="0"/>
	<rect x="140" y="44" width="114" height="56" fill="none" rx="14" stroke="#bf812d" stroke-width="3"/>
	<line x1="140" y1="71" x2="254" y2="71" stroke="#bf812d" stroke-width="1.5"/>
	<text x="149" y="64.3" fill="#000000" font-family="Arial Black" font-size="13">CATEGORISE</text>
</g>

<!-- Entity CATEGORY -->
<g id="entity-CATEGORY">
	<g id="frame-CATEGORY">
		<rect x="9" y="27" width="98" height="28" fill="#80cdc1" stroke="#80cdc1" stroke-width="0"/>
		<rect x="9" y="55.0" width="98" height="62" fill="#c7eae5" stroke="#c7eae5" stroke-width="0"/>
		<rect x="9" y="27" width="98" height="90" fill="none" stroke="#35978f" stroke-width="3"/>
		<line x1="9" y1="55" x2="107" y2="55" stroke="#35978f" stroke-width="1.5"/>
	</g>
	<text x="17" y="47.3" fill="#000000" font-family="Arial Black" font-size="13">CATEGORY</text>
	<text x="17" y="71.2" fill="#000000" font-family="Arial" font-size="14">code_label</text>
	<line x1="17" y1="74" x2="89" y2="74" stroke="#000000" stroke-width="1.2"/>
	<text x="17" y="89.2" fill="#000000" font-family="Arial" font-size="14">route</text>
	<text x="17" y="107.2" fill="#000000" font-family="Arial" font-size="14">label</text>
</g>

<!-- Entity ARTICLE -->
<g id="entity-ARTICLE">
	<g id="frame-ARTICLE">
		<rect x="287" y="9" width="96" height="28" fill="#80cdc1" stroke="#80cdc1" stroke-width="0"/>
		<rect x="287" y="37.0" width="96" height="98" fill="#c7eae5" stroke="#c7eae5" stroke-width="0"/>
		<rect x="287" y="9" width="96" height="126" fill="none" stroke="#35978f" stroke-width="3"/>
		<line x1="287" y1="37" x2="383" y2="37" stroke="#35978f" stroke-width="1.5"/>
	</g>
	<text x="303" y="29.3" fill="#000000" font-family="Arial Black" font-size="13">ARTICLE</text>
	<text x="295" y="53.2" fill="#000000" font-family="Arial" font-size="14">code_article</text>
	<line x1="295" y1="56" x2="375" y2="56" stroke="#000000" stroke-width="1.2"/>
	<text x="295" y="71.2" fill="#000000" font-family="Arial" font-size="14">title</text>
	<text x="295" y="89.2" fill="#000000" font-family="Arial" font-size="14">slug</text>
	<text x="295" y="107.2" fill="#000000" font-family="Arial" font-size="14">excerpt</text>
	<text x="295" y="125.2" fill="#000000" font-family="Arial" font-size="14">content</text>
</g>
</svg>